{"asset":{"version":"2.0","generator":"THREE.GLTFExporter"},"scenes":[{"nodes":[0],"name":"AuxScene"}],"scene":0,"nodes":[{"mesh":0}],"bufferViews":[{"buffer":0,"byteOffset":0,"byteLength":106560,"target":34962,"byteStride":12},{"buffer":0,"byteOffset":106560,"byteLength":106560,"target":34962,"byteStride":12}],"buffers":[{"byteLength":213120,"uri":"data:application/octet-stream;base64,"}],"accessors":[{"bufferView":0,"componentType":5126,"count":8880,"max":[100.61190795898438,12.9959716796875,100.61190795898438],"min":[-100.78809356689453,0.19596900045871735,-100.78809356689453],"type":"VEC3"},{"bufferView":1,"componentType":5126,"count":8880,"max":[0.9898273348808289,1,0.9897429943084717],"min":[-0.9901471734046936,0.03327975794672966,-0.9899345636367798],"type":"VEC3"}],"materials":[{"pbrMetallicRoughness":{"baseColorFactor":[0.5019607843137255,0.5019607843137255,0.5019607843137255,1],"metallicFactor":0,"roughnessFactor":1}}],"meshes":[{"primitives":[{"mode":4,"attributes":{"POSITION":0,"NORMAL":1},"material":0}]}]}